{"title":"Top.Gear.US.S03E06.HDTV.XviD-Tallyortoby.avi","uid":7120928,"size":369813286,"categoryP":"video","categoryS":"tv_shows","magnet":"?xt=urn:btih:f36114e373e83953a2032189df98ace661c07592&amp;dn=Top.Gear.US.S03E06.HDTV.XviD-Tallyortoby.avi&amp;tr=udp%3A%2F%2Ftracker.openbittorrent.com%3A80&amp;tr=udp%3A%2F%2Fopen.demonii.com%3A1337&amp;tr=udp%3A%2F%2Ftracker.coppersurfer.tk%3A6969&amp;tr=udp%3A%2F%2Fexodus.desync.com%3A6969","seeders":1,"leechers":0,"uploader":"Tallyortoby","files":1,"time":1332365563,"description":"I took the following file:\n\nTop.Gear.US.S03E06.Limos.720p.HDTV.x264-MOMENTUM\n\nRelease Date.....: 2012-03-21\nFilesize.........: 1333.750MB\nRuntime..........: 43m59s\nVideo............: 3770Kbps x264\nAudio............: 384Kbps AC3 6 channels\nFrame Size.......: 1276x720\nFrame Rate.......: 29.970 fps\n\nand converted it with SUPER (C) eRightSoft\n\nso that it now is a AVI File and has following specification:\n\nRelease Date.....: 2012-03-21\nFilesize.........: 352 MB\nRuntime..........: 43m59s\nVideo............: 1009Kbps XviD\nAudio............: 128Kbps MP3 2 channels\nFrame Size.......: 624x352\nFrame Rate.......: 23.976 fps\n\nFormat                           : AVI\nFormat/Info                      : Audio Video Interleave\nFile size                        : 353 MiB\nDuration                         : 43mn 59s\nOverall bit rate                 : 1 121 Kbps\nMovie name                       : top.gear.us.s03e06.720p.hdtv.x264-momentum.mkv\nDirector                         : created.with.SUPER(C).v2012.bld.50\nWriting application              : SUPER(C)   \n\nVideo\nID                               : 0\nFormat                           : MPEG-4 Visual\nFormat profile                   : Advanced Simple@L5\nFormat settings, BVOP            : No\nFormat settings, QPel            : No\nFormat settings, GMC             : No warppoints\nFormat settings, Matrix          : Default (H.263)\nCodec ID                         : XVID\nCodec ID/Hint                    : XviD\nDuration                         : 43mn 59s\nBit rate                         : 980 Kbps\nWidth                            : 624 pixels\nHeight                           : 352 pixels\nDisplay aspect ratio             : 16:9\nFrame rate                       : 23.976 fps\nColor space                      : YUV\nChroma subsampling               : 4:2:0\nBit depth                        : 8 bits\nScan type                        : Progressive\nBits/(Pixel*Frame)               : 0.186\nStream size                      : 308 MiB (87%)\nWriting library                  : SUPER(C)   \n\nAudio\nID                               : 1\nFormat                           : MPEG Audio\nFormat version                   : Version 1\nFormat profile                   : Layer 3\nMode                             : Joint stereo\nMode extension                   : MS Stereo\nCodec ID                         : 55\nCodec ID/Hint                    : MP3\nDuration                         : 43mn 59s\nBit rate mode                    : Constant\nBit rate                         : 128 Kbps\nChannel(s)                       : 2 channels\nSampling rate                    : 48.0 KHz\nStream size                      : 40.3 MiB (11%)\nAlignment                        : Aligned on interleaves\nInterleave, duration             : 24 ms (0.58 video frame)","torrent":{"xt":"urn:btih:f36114e373e83953a2032189df98ace661c07592","amp;dn":"Top.Gear.US.S03E06.HDTV.XviD-Tallyortoby.avi","amp;tr":["udp%3A%2F%2Ftracker.openbittorrent.com%3A80","udp%3A%2F%2Fopen.demonii.com%3A1337","udp%3A%2F%2Ftracker.coppersurfer.tk%3A6969","udp%3A%2F%2Fexodus.desync.com%3A6969"],"infoHash":"f36114e373e83953a2032189df98ace661c07592","infoHashBuffer":{"type":"Buffer","data":[243,97,20,227,115,232,57,83,162,3,33,137,223,152,172,230,97,192,117,146]},"announce":[],"urlList":[]}}